<svg xmlns="http://www.w3.org/2000/svg" viewBox="0 0 160 160" role="img" aria-label="Breakfast plate">
  <defs>
    <linearGradient id="bg" x1="0" y1="0" x2="1" y2="1"><stop stop-color="#fff3ca"/><stop offset="1" stop-color="#efc36f"/></linearGradient>
    <filter id="s" x="-30%" y="-30%" width="160%" height="160%"><feDropShadow dx="0" dy="5" stdDeviation="5" flood-color="#8b5e28" flood-opacity=".22"/></filter>
  </defs>
  <rect width="160" height="160" rx="30" fill="url(#bg)"/>
  <circle cx="80" cy="84" r="54" fill="#fffdf7" filter="url(#s)"/>
  <circle cx="80" cy="84" r="44" fill="#f8f4e9" stroke="#e5dcc8" stroke-width="2"/>
  <path d="M35 51c3-15 18-23 30-16l16 9-26 37-17-10c-7-4-7-13-3-20Z" fill="#b9773a"/>
  <path d="M42 49c3-7 11-10 17-6l12 7-18 24-12-7c-5-3-4-11 1-18Z" fill="#e8ad60"/>
  <path d="M72 71c10-14 31-16 44-4 12 11 8 31-8 36-9 3-16-1-22 7-8 9-27 1-27-13 0-11 7-16 13-26Z" fill="#fff"/>
  <circle cx="91" cy="85" r="14" fill="#f4b52f"/>
  <path d="M108 42c5 8 4 15-3 21M119 47c4 6 3 12-2 17" fill="none" stroke="#fff" stroke-linecap="round" stroke-width="5" opacity=".75"/>
</svg>
